<?xml version="1.0" encoding="UTF-8"?>
<svg xmlns="http://www.w3.org/2000/svg" width="502.59" height="413.65" xmlns:xlink="http://www.w3.org/1999/xlink" viewBox="0 0 502.59 413.65">
  <defs>
    <style>
      .cls-1 {
        fill: url(#Dégradé_sans_nom_9);
        stroke: #221f28;
        stroke-width: 2px;
      }

      .cls-1, .cls-2, .cls-3, .cls-4 {
        stroke-miterlimit: 5;
      }

      .cls-6, .cls-7, .cls-8 {
        stroke-width: 0px;
      }

      .cls-2, .cls-3, .cls-4 {
        fill: none;
        stroke: #fff;
        stroke-width: 3px;
      }

      .cls-6 {
        fill: #fff;
      }

      .cls-3 {
        stroke-dasharray: 0 0 10.3 10.3;
      }

      .cls-7 {
        fill: #7087c5;
      }

      .cls-8 {
        fill: #5956c1;
      }

      .cls-4 {
        stroke-dasharray: 0 0 9.83 9.83;
      }

      
      @keyframes dash {
  to {
    stroke-dashoffset: -40;
  }
}

#pointille {
  stroke-dasharray: 15 10; 
  animation: dash 2s linear infinite;
}


    </style>
    <linearGradient id="Dégradé_sans_nom_9" data-name="Dégradé sans nom 9" x1="321.18" y1="304.11" x2="444.82" y2="304.11" gradientUnits="userSpaceOnUse">
      <stop offset="0" stop-color="#7b69f2"/>
      <stop offset="0" stop-color="#7b69f2"/>
      <stop offset=".15" stop-color="#945edc"/>
      <stop offset=".41" stop-color="#bc4cb8"/>
      <stop offset=".62" stop-color="#d541a3"/>
      <stop offset=".75" stop-color="#df3e9b"/>
    </linearGradient>
  </defs>

  <g id="pointille">
    <g>
      <path class="cls-2" d="m404.2,92.79c1.63.52,3.21,1.07,4.73,1.63"/>
      <path class="cls-4" d="m417.91,98.39c9.45,4.97,15.21,11.12,16.47,18.37,5.7,32.72-82.42,75.39-196.83,95.32-114.4,19.93-211.77,9.56-217.47-23.16-2.41-13.85,11.99-29.49,38.08-44.42"/>
      <path class="cls-2" d="m62.46,142.11c1.44-.78,2.91-1.56,4.42-2.34"/>
    </g>
    <g>
      <path class="cls-2" d="m425.77,245.18c1.26.66,2.76,1.43,4.44,2.31"/>
      <path class="cls-3" d="m439.31,252.31c15.31,8.29,35.14,20.11,36.46,27.7,5.46,31.33-73.74,58.43-149.2,72.64"/>
      <path class="cls-2" d="m321.5,353.59c-1.64.3-3.28.59-4.92.87"/>
    </g>
  </g>
  <g id="carte">
    <polygon class="cls-8" points="259.68 347.03 242.54 343.44 154.57 359.41 154.57 47.05 240.42 66.26 259.68 61.03 259.68 347.03"/>
    <polygon class="cls-7" points="392.98 63.85 320.51 47.05 259.68 61.03 259.68 347.03 322.86 359.41 392.98 343.38 392.98 63.85"/>
    <polygon class="cls-7" points="154.57 47.05 154.57 359.41 73.04 342.47 73.04 64 154.57 47.05"/>
    <g>
      <polygon class="cls-6" points="205.2 135.51 208.26 127.56 207.11 124.88 213.81 115.7 211.52 114.74 208.45 116.65 205.39 113.59 209.41 112.25 205.58 107.27 194.48 108.61 194.86 112.63 193.14 112.25 193.14 109.38 192.18 109.95 184.14 112.25 179.74 115.89 179.74 117.23 178.97 120.29 173.99 120.29 173.99 123.54 178.01 123.54 177.63 125.27 172.46 125.27 173.23 127.95 178.78 127.95 181.08 133.88 180.5 140.39 182.32 140.39 182.32 146.71 178.78 148.24 179.74 158.58 183.37 161.07 189.12 151.49 193.71 151.49 196.2 148.43 205.2 144.22 205.2 135.51"/>
      <polygon class="cls-6" points="210.75 154.17 208.84 152.07 205.39 153.03 204.05 152.07 202.13 153.6 206.35 157.43 210.75 154.17"/>
      <polygon class="cls-6" points="165.83 125.27 168.22 124.12 165.54 122.36 166.88 121.12 168.73 122.65 172.46 119.59 172.24 116.94 175.88 117.29 185.83 109.54 181.87 104.85 176.58 104.69 174.28 106.92 173.23 105.8 168.35 106.54 168.98 111.99 173.48 111.74 173.45 113.27 167.99 113.27 166.85 107.02 161.71 111.39 162.32 117.29 163.66 118.85 159.86 122.91 165.83 125.27"/>
      <polygon class="cls-6" points="155.84 126.8 159.86 129.29 164.17 129.29 164.17 126.35 158.87 126.03 158.36 122.33 156 120.42 155.17 121.89 156.51 122.84 155.84 126.8"/>
      <polygon class="cls-6" points="151.88 125.27 153.8 120.42 151.31 121.82 148.82 120.42 149.97 125.27 151.88 125.27"/>
      <polygon class="cls-6" points="139.44 122.84 146.71 122.84 146.71 117.9 144.89 121.06 142.84 117.42 138.96 120.42 142.31 121.53 139.44 122.84"/>
      <polygon class="cls-6" points="146.33 134.17 147.19 134.17 149.78 128.62 148.05 128.62 146.33 130.34 146.33 134.17"/>
      <polygon class="cls-6" points="141.93 127.85 140.59 130.72 137 126.51 131.4 128.62 133.31 130.82 131.3 131.39 135.23 133.6 130.63 133.02 132.55 137.14 137.81 135.51 140.01 138.19 142.65 136.08 141.93 134.17 143.36 129.29 141.93 127.85"/>
      <polygon class="cls-6" points="137 124.41 131.78 120.96 126.33 126.51 127.67 129.29 137 124.41"/>
      <path class="cls-6" d="m177.57,235.73l-6.13-2.04-2.55-6.51h-4.85l-3.57-4.85-4.59-.13-2.17-1.79-5.89,1.21-3.81,2.94-1.08-1.15h-2.3l-2.62-1.34.1-5.2-4.98-1.15,2.68-5.07-3.35-.86-3.45,3.45-3.45-1.82-.48-6.99,2.58-3.64,10.72-1.34,3.45,6.6.13-8.61,6.86-4.47,2.49-6.45h3.86l-.83-1.98,4.08-2.68,2.3,2.68,4.98-3.06-.64-1.53-2.94.77v-2.68l-2.27-1.28,1.12-2.04h7.91l1.66-4.21-2.94-3.32v-1.66l-1.79-5.1-2.17,3.45-1.91-1.53v-4.34l-7.02-3.25.45,5.55-1.37.77v4.85l-3.16,1.28-.13,5.23-4.18-1.53,1.72-4.08-7.88-3.57v-7.66l10.21-8.17,4.79-.64,1.98-5.49-2.68-1.15-1.45,4.21h-2.25l.54-2.42v-1.15l-1.53,1.15v-3.06l.73-.67v-4.02l5.74-4.88-3.83-.67-6.67,8.14,2.3,2.58-3.06,2.2-1.15-1.15-2.2,1.91-3.45-2.3-1.72-.29-2.97,2.2s-.38-2.3-.67-2.2c-.29.1-3.45.19-3.45.19v-1.05l2.27-.29-1.03-1.72-2.01.38-1.82-3.64-3.16.57-2.2-3.92-2.01,2.87-5.55.19-11.39-11.68h-6.03l-2.01,2.58h-5.07l-.67,4.4,2.2,2.78h-7.56l-.29,3.83,4.21.1-1.63,2.87-6.51,2.01-.57,4.59,1.63.96-1.24,3.06,5.36-.48-1.72,2.87-10.82,4.5.48,1.15,11.87-4.59,6.89-7.18.86.67-2.58,3.25,1.05.67,3.92-3.73,4.69,3.64,1.05,5.26,9.38,19.81-.86.38-3.92-6.7-1.24.86,2.2,5.36-2.58,7.47.7,9.8,3.83,3.83.89,7.02,4.21,5.62v-1.91l-2.68-4.21v-5.11l1.02,3.32,5.36,7.4v3.57l17.48,7.79,5.62,5.87,3.32.26-2.55,13.27,11.1,12.63,2.17,41.86,5.36,4.85,3.7-1.02-4.21-4.47,1.4-1.53.13-4.47-1.79-1.79,1.79-1.79-.51-4.34h1.79v-2.81l2.55.64,2.04-3.45-1.15-2.94,4.08.64,4.85-5.62v-5.74l7.66-3.7,1.53-10.34,4.34-3.7-4.59-5.74h-4.85Z"/>
      <path class="cls-6" d="m157.53,149.45l.13,1.66h3.57l.51,3.64s2.04,1.34,2.43,1.34.77-4.02.77-4.02l1.28,2.68.64-6.32,2.81,2.42,2.81-1.53-5.23-5.87h2.94l-1.79-4.59-4.21-4.69v-2.78l-6.13-.57-4.24,4.85.67,3.06,5.2.77,2.33.77,1.53,4.98-2.81,4.21h-3.19Z"/>
      <path class="cls-6" d="m372.58,122.14h-1.79v-2.81l-15.79-.57,1.72,3.54-1.72.77-1.91-2.58-5.65,2.58-3.92-3.25-2.49.48-1.44,2.2-6.51-2.87-.77,2.3-1.34-2.49-3.64.38.86,4.12-4.02,1.53-1.63,2.3-6.51-6.32-3.73.38,1.15,3.16h-3.92v-1.72l-6.03,1.63-3.16,4.21,2.3-8.71-3.16-2.58-4.21,2.01-1.44-3.06-2.11.77.77,3.92-7.66,4.4,1.24,5.17-4.21.57,2.97,3.35-3.45-1.05-1.82,1.91-1.34-2.11,3.16,8.14,1.24,1.63-1.82,5.26-2.01-.67,1.24-4.98-3.45-6.03v-3.06l-2.39.1-.48,5.84,2.87,4.12-6.32-2.01.67,3.06-3.35-1.24-2.01,1.63-1.05-1.24-3.25,4.02-4.21-2.11.48,4.12-2.3.67v2.97l-2.58.86-3.06-2.11-.77-2.78,5.07,1.34,1.15-3.35-12.16-5.07-7.56,4.21-3.73,8.61-4.88,3.06.57,6.32,5.17-1.82,1.05,6.13,2.87-2.87,2.39-5.36-1.91-3.64,2.78-2.68,2.68-2.3,1.44.67-4.12,4.31,1.63,5.17,4.21-1.53,2.2.57-.38,1.05-5.93.48-.1,1.53,1.82.29.29,1.34-3.16.48-.29,3.73h-8.9l-.19-4.4-1.72.29-.48,5.55-1.91.29-5.36,5.93-4.12.48v1.34l2.78.57.77,4.4-6.99-.57v8.42l7.85-.67,4.88-7.47,3.83-.86,3.45,3.73,3.54,2.97.96-2.2-5.46-6.32,3.16.77,5.26,4.98.96,2.97,2.68,2.58.57-1.53-1.91-3.73,3.54.48,1.82,4.79h7.94l-1.44,5.46-9.76.77-2.58-1.72-2.49,2.39-9.19-3.35.67-3.83-10.15.77-2.39,2.49-4.02-1.44-3.73,5.36-1.05,2.68-6.03,6.86v10.66l6.03,6.6h7.47l8.04-1.44,2.58,1.44,2.87,4.02.57,4.88,4.02,8.9-1.87,3.45,2.44,8.9.57,4.31,3.73,6.89h6.6l4.88-5.17,4.02-7.75v-4.88l4.31-1.72.86-11.49,10.47-12.92,1.08-5.23-6.76,3.7-1.79-1.91-2.42-4.53-4.21-4.72-1.72-3.89-2.49-4.91.32-1.53,1.72.7,7.66,11.49,2.04,5.49,10.21-4.21,4.75-6s-2.65-3.51-3.03-3.51-9.38-3.32-9.38-3.32l.83-1.4,2.17-.51,3.51,3.64,7.66,1.4,5.68.45,6.06,4.4,2.49,8.74,3.32,4.91,2.23-2.81v-5.42l5.36-4.21,4.28-3.7,3.76,4.98.51,3.7,1.28-.13.89-1.91,3.19,3.06-.38,5.62,4.34,6.51,1.15-1.28-3.7-5.74.89-5.49,3.96,5.62,4.72-3.83-5.1-6.76,1.53-3.7,2.55.64-.13,2.55h1.15l-.25-3.83,5.1-.64,3.19-6-.38-4.98-2.81-2.55,2.68-4.34-3.7-.77.89-3.96,1.91-.38v2.62l1.79-.83,1.4-.38.51,2.68,2.04.13-.13,3.45,2.3-1.02.38-2.94-3.45-2.3,1.79-2.68.77-2.55,3.83-.77,1.4-13.91-2.94-4.85-4.85-2.55,3.45-8.55,4.85-.51,4.98-.13-1.15-5.11,2.81-2.55,1.4,2.17,1.4-4.59,1.91,3.96-2.3,11.36,5.36,9.7,2.04-8.17-1.91-5.87-1.53-3.32,1.02-3.32,1.02,1.02,1.4-1.66,1.91,1.66v-7.02l4.08-1.91-4.59-4.85,1.15-1.66.64-3.06,5.49,1.4-1.02-2.17-1.28-1.79,2.94-.38v-1.66l-4.21-.51-1.28,1.66Z"/>
      <polygon class="cls-6" points="264.74 132.16 269.9 127.76 269.2 125.78 261.86 131.71 261.48 139.69 264.74 140.58 264.74 132.16"/>
      <path class="cls-6" d="m217.45,173.99l1.44,1.53v1.82s3.83-2.3,4.21-2.49c.38-.19-3.21-6.41-3.21-6.41l-1.29-3.16-1.91,2.49,2.68,3.73-1.91,2.49Z"/>
      <polygon class="cls-6" points="214.34 173.51 212.66 174.66 214.34 175.23 216.68 173.51 216.01 170.45 212.66 172.27 214.34 173.51"/>
      <polygon class="cls-6" points="349.73 193.29 350.5 196.74 358.03 190.68 358.57 187.23 356.94 182.7 356.94 180.85 360.2 181.1 360.2 178.23 356.94 176 355.73 179.76 356.56 183.4 356.43 188.95 349.73 193.29"/>
      <polygon class="cls-6" points="265.95 250.02 265.37 258.44 268.12 258.89 272.14 247.6 271.88 244.85 265.95 250.02"/>
      <polygon class="cls-6" points="341.31 226.92 339.68 226.06 332.12 231.99 333.94 235.34 338.34 236.01 341.31 226.92"/>
      <polygon class="cls-6" points="335.28 239.36 329.44 238.79 327.91 234.29 320.73 227.88 317.67 227.21 326.67 238.12 330.97 240.42 337.29 241.37 335.28 239.36"/>
      <polygon class="cls-6" points="343.32 232.28 341.79 236.01 341.79 238.69 343.32 238.69 343.32 235.54 344.18 237.55 345.43 237.55 344.66 235.15 347.53 232.28 343.32 232.28"/>
      <path class="cls-6" d="m360.2,233.62c.06.19-1.56,2.39-1.56,2.39l-2.58-2.4h-1.63s1.24,3.36,1.24,3.36l5.26,1.05v3.35h2.78l2.11.67,1.44-1.34,5.07,3.45,1.72-1.05-6.41-5.46s-7.5-4.21-7.43-4.02Z"/>
      <polygon class="cls-6" points="365.18 245.43 362.75 252.57 357.9 250.02 359.31 246.83 354.42 246.83 352.8 249 349.73 247.72 344.66 251.3 343.99 253.47 334.55 258.19 335.44 268.37 333.53 270.57 334.8 273.25 336.72 271.85 341.79 272.23 345.27 270.06 352.29 269.42 353.82 272.87 356.12 271.33 357.52 277.97 361.86 280.01 365.94 280.01 374.05 264.7 368.62 255.76 365.18 245.43"/>
      <polygon class="cls-6" points="360.71 287.16 363.52 286.01 363.52 283.2 360.71 283.2 360.71 287.16"/>
      <polygon class="cls-6" points="393.51 280.91 390.96 274.53 390.83 283.2 389.68 283.84 390.06 285.18 388.66 287.16 387.13 285.88 378.96 293.16 382.28 295.33 389.3 287.16 395.68 280.91 393.51 280.91"/>
    </g>
  </g>
  <g id="bordure_carte">
    <polygon class="cls-2" points="240.42 65.77 320.51 46.56 392.98 63.36 392.98 342.88 322.86 358.91 240.42 343.35 154.88 358.91 73.04 341.97 73.04 63.5 154.57 46.56 240.42 65.77"/>
  </g>
  <g id="leaf">
    <polygon class="cls-1" points="415.53 340.36 460.24 305.67 447.5 299.21 457.27 271.67 430.63 278.19 425 265.16 402.13 286.48 410.2 235.55 391.55 245.03 376.53 214.19 361.52 245.03 342.87 235.55 350.94 286.48 328.06 265.16 322.44 278.19 295.79 271.67 305.56 299.21 292.83 305.67 337.54 340.36 330.73 358.42 373.47 351.61 370.4 394.03 376.53 394.03 382.67 394.03 379.6 351.61 422.34 358.42 415.53 340.36"/>
  </g>
</svg>