<?xml version="1.0" encoding="UTF-8"?>
<svg xmlns="http://www.w3.org/2000/svg" width="824.61" height="751.3" xmlns:xlink="http://www.w3.org/1999/xlink" viewBox="0 0 824.61 751.3">
  <defs>
    <style>
      .cls-1 {
        fill: #9d8ec2;
      }

      .cls-1, .cls-2, .cls-3, .cls-4, .cls-5, .cls-6, .cls-7, .cls-8, .cls-9, .cls-10, .cls-11, .cls-12, .cls-13, .cls-14, .cls-15, .cls-16, .cls-17, .cls-18, .cls-19, .cls-20, .cls-21, .cls-22, .cls-23, .cls-24, .cls-25, .cls-26, .cls-27, .cls-28, .cls-29, .cls-30, .cls-31, .cls-32, .cls-33, .cls-34, .cls-35 {
        stroke-width: 0px;
      }

      .cls-2 {
        fill: #80a6c1;
      }

      .cls-3 {
        fill: #9ea4be;
      }

      .cls-36, .cls-37, .cls-38, .cls-39, .cls-40, .cls-41, .cls-42 {
        stroke-miterlimit: 5;
        stroke-width: 2px;
      }

      .cls-36, .cls-29 {
        fill: #5956c1;
      }

      .cls-36, .cls-41 {
        stroke: #4e429b;
      }

      .cls-4 {
        fill: #655dc3;
      }

      .cls-5 {
        fill: url(#Dégradé_sans_nom_9);
      }

      .cls-6 {
        fill: #ad29ae;
      }

      .cls-37, .cls-38 {
        stroke: #4c4294;
      }

      .cls-37, .cls-25 {
        fill: #acb9ea;
      }

      .cls-7 {
        fill: #c47f9a;
      }

      .cls-8 {
        fill: #4ba2be;
      }

      .cls-9, .cls-39, .cls-40, .cls-41, .cls-42 {
        fill: none;
      }

      .cls-10 {
        fill: #9fa5be;
      }

      .cls-11 {
        fill: #15a6a7;
      }

      .cls-12 {
        fill: #c0599e;
      }

      .cls-13 {
        fill: url(#Dégradé_sans_nom_9-3);
      }

      .cls-14 {
        fill: #6850c2;
      }

      .cls-15 {
        fill: #7057c3;
      }

      .cls-16 {
        fill: #4d4db2;
      }

      .cls-17 {
        fill: #fff;
      }

      .cls-18 {
        fill: #a079c2;
      }

      .cls-19 {
        fill: #8391c5;
      }

      .cls-20 {
        fill: #401aaa;
      }

      .cls-21 {
        fill: #7d7dc5;
      }

      .cls-22 {
        fill: #2975bb;
      }

      .cls-38, .cls-28 {
        fill: #884fc2;
      }

      .cls-23 {
        fill: #b6bedb;
      }

      .cls-24 {
        fill: #a893bf;
      }

      .cls-26 {
        fill: #7087c5;
      }

      .cls-27 {
        fill: #6050c1;
      }

      .cls-39, .cls-40, .cls-42 {
        stroke: #fff;
      }

      .cls-30 {
        fill: #6244d3;
      }

      .cls-40 {
        stroke-dasharray: 0 0 12.13 12.13;
      }

      .cls-31 {
        fill: #ac9cbb;
      }

      .cls-32 {
        fill: url(#Dégradé_sans_nom_9-2);
      }

      .cls-42 {
        stroke-dasharray: 0 0 11.76 11.76;
      }

      .cls-33 {
        fill: #c26e9f;
      }

      .cls-34 {
        fill: #6776c5;
      }

      .cls-35 {
        fill: #bea79b;
      }

      /* Define the animation */
@keyframes dash {
  to {
    stroke-dashoffset: 0;
  }
}

/* Animations */
@keyframes dash {
  to {
    stroke-dashoffset: 0;
  }
}

@keyframes updown {
  0%, 100% {
    transform: translateY(0);
  }
  50% {
    transform: translateY(-10px);
  }
}

@keyframes folder {
  0%, 100% {
    transform: translateY(0);
  }
  50% {
    transform: translateY(-8px);
  }
}

@keyframes shrinkY {
  0%, 100% {
    transform: scaleY(1);
  }
  50% {
    transform: scaleY(0.8);
  }
}

#Pointillé {
  stroke-dasharray: 500;
  stroke-dashoffset: 500;
  animation: dash 10s linear forwards infinite;
}

#Orb_blue circle {
  transform-origin: center;
  animation: updown 5s linear infinite;
}

#Folder_paper {
  transform-origin: center;
  animation: folder 2s linear infinite;
}

@keyframes shrinkYPink {
  0%, 100% {
    transform: scaleY(1);
  }
  50% {
    transform: scaleY(0.8); /* Adjust the scale factor as needed */
  }
}

#Pink_line path {
  transform-origin: center bottom;
  transform-box: fill-box;
  animation: shrinkYPink 6s ease-in-out infinite; /* Adjust the duration (6s in this case) */
}

@keyframes shrinkYBlue {
  0%, 100% {
    transform: scaleY(1);
  }
  50% {
    transform: scaleY(0.7); /* Adjust the scale factor as needed */
  }
}

#blue_line path {
  transform-origin: center bottom;
  transform-box: fill-box;
  animation: shrinkYBlue 4s ease-in-out infinite; /* Adjust the duration (4s in this case) */
}

@keyframes shrinkYGreen {
  0%, 100% {
    transform: scaleY(1);
  }
  50% {
    transform: scaleY(0.7); /* Adjust the scale factor as needed */
  }
}

#green_line path {
  transform-origin: center bottom;
  transform-box: fill-box;
  animation: shrinkYGreen 5s ease-in-out infinite; /* Adjust the duration (5s in this case) */
}

#full_svg:hover #Pink_line path,
#full_svg:hover #blue_line path,
#full_svg:hover #green_line path {
  animation-play-state: paused;
}


    </style>
    <linearGradient id="Dégradé_sans_nom_9" data-name="Dégradé sans nom 9" x1="313.4" y1="527.1" x2="390.69" y2="527.1" gradientUnits="userSpaceOnUse">
      <stop offset="0" stop-color="#7b69f2"/>
      <stop offset="0" stop-color="#7b69f2"/>
      <stop offset=".15" stop-color="#945edc"/>
      <stop offset=".41" stop-color="#bc4cb8"/>
      <stop offset=".62" stop-color="#d541a3"/>
      <stop offset=".75" stop-color="#df3e9b"/>
    </linearGradient>
    <linearGradient id="Dégradé_sans_nom_9-2" data-name="Dégradé sans nom 9" x1="612.19" y1="671.39" x2="659.57" y2="671.39" xlink:href="#Dégradé_sans_nom_9"/>
    <linearGradient id="Dégradé_sans_nom_9-3" data-name="Dégradé sans nom 9" x1="553.86" y1="482.3" x2="610.61" y2="482.3" xlink:href="#Dégradé_sans_nom_9"/>
  </defs>
 
 <g id="full_svg">
  <g id="Orb_blue">
    <circle class="cls-2" cx="496.48" cy="158.64" r="23.69"/>
    <circle class="cls-26" cx="126.55" cy="587.54" r="23.69"/>
  </g>

  <g id="Cube">
    <g>
      <polygon class="cls-9" points="207.75 180.77 217.91 281.01 210.27 205.63 207.75 180.77"/>
      <polygon class="cls-9" points="244.42 282.54 241.33 270.95 244.42 282.54 244.42 282.54 244.42 282.54"/>
      <polygon class="cls-9" points="217.91 281.01 238.24 259.35 238.24 259.35 217.91 281.01"/>
      <polygon class="cls-20" points="209.46 334.23 209.11 325.47 209.22 334.58 209.49 334.3 209.46 334.23"/>
      <polygon class="cls-6" points="207.34 366.78 206.81 367.51 218.78 361.54 209.49 334.3 209.22 334.58 171.4 373.57 180.01 381.29 207.34 366.78"/>
      <polygon class="cls-33" points="202.13 369.84 206.81 367.51 207.34 366.78 180.01 381.29 171.4 373.57 152.72 394.05 152.72 402.52 131.32 464.26 138.29 485.76 146.9 453.97 158.36 422.46 164.61 416.32 164.61 416.32 187.28 394.05 189.49 391.04 183.41 393.73 202.13 369.84"/>
      <polygon class="cls-33" points="139.87 490.63 140.11 489.36 138.29 485.77 139.87 490.63"/>
      <polygon class="cls-31" points="146.9 453.97 138.29 485.76 138.29 485.76 138.29 485.77 140.11 489.36 157.7 524.08 164.61 490.63 151.45 475.84 158.36 471.98 152.72 456.54 164.61 416.32 158.36 422.46 146.9 453.97"/>
      <polygon class="cls-31" points="164.61 416.32 164.61 416.32 164.61 416.32 164.61 416.32"/>
      <polygon class="cls-20" points="218.78 361.54 206.81 367.51 202.13 369.84 183.41 393.73 189.49 391.04 223.29 376.11 221.43 369.32 218.78 361.54"/>
      <polygon class="cls-20" points="269.92 356.26 270.08 355.8 269.92 356.26 269.92 356.26"/>
      <polygon class="cls-28" points="244.42 348.75 272.46 348.75 287.45 304.4 297.02 273.81 235.14 321.7 244.42 348.75"/>
      <polygon class="cls-34" points="244.42 282.54 244.42 282.54 235.14 321.7 297.02 273.81 309.06 252.96 244.42 282.54 244.42 282.54"/>
      <polygon class="cls-4" points="216.24 327.34 235.14 321.7 244.42 282.54 241.33 270.95 238.24 259.35 217.91 281.01 212.83 286.43 207.75 291.84 209.11 325.47 209.46 334.23 216.24 327.34"/>
      <polygon class="cls-16" points="244.42 282.54 309.06 252.96 383.44 226.61 344.56 226.61 318.64 211.1 281.53 246.82 244.42 282.54"/>
      <polygon class="cls-29" points="272.46 348.75 270.09 355.77 270.08 355.8 269.92 356.26 279.7 357.61 279.5 359.17 334.13 366.78 287.45 304.4 272.46 348.75"/>
      <polygon class="cls-20" points="261.48 436.87 260.92 468.86 276.13 447.66 276.13 385.7 268.6 385.7 261.48 436.87"/>
      <polygon class="cls-6" points="241.76 443.56 241.76 468.86 230.49 502.71 260.92 468.86 261.48 436.87 241.76 443.56"/>
      <polygon class="cls-33" points="205.7 535.63 219.22 528.37 230.49 502.71 241.76 468.86 200.63 527.26 200.63 534.51 189.92 547.9 200.63 550.69 205.7 535.63"/>
      <polygon class="cls-31" points="219.22 528.37 205.7 535.63 200.63 550.69 189.92 547.9 178.65 561.85 205.7 561.85 212.46 554.04 212.46 540.09 222.04 540.09 227.96 520.01 260.92 468.86 230.49 502.71 219.22 528.37"/>
      <polygon class="cls-15" points="269.92 356.26 269.92 356.26 270.08 355.8 270.09 355.77 261.67 354.68 221.43 369.32 223.29 376.11 241.76 443.56 261.48 436.87 268.6 385.7 276.13 385.7 279.5 359.17 279.7 357.61 269.92 356.26"/>
      <polygon class="cls-30" points="235.14 321.7 216.24 327.34 209.46 334.23 209.49 334.3 218.78 361.54 221.43 369.32 261.67 354.68 270.09 355.77 272.46 348.75 244.42 348.75 235.14 321.7"/>
      <polygon class="cls-14" points="222.98 134.21 196.36 114.78 233.23 122.64 231.61 122.16 192.38 102.8 167.59 108.72 200.55 136.46 222.98 134.21"/>
      <polygon class="cls-15" points="244.18 149.69 222.98 134.21 200.55 136.46 218.43 145.31 244.18 149.69"/>
      <polygon class="cls-2" points="135.56 195.86 156.97 211.1 174.25 205.63 167.59 191.36 135.56 195.86"/>
      <polygon class="cls-8" points="167.59 191.36 174.25 205.63 187.56 171.96 167.59 191.36"/>
      <polygon class="cls-19" points="108.89 227.79 137.44 242.92 156.97 211.1 135.56 195.86 108.89 227.79"/>
      <polygon class="cls-18" points="130.3 170.7 108.89 227.79 135.56 195.86 130.3 170.7"/>
      <polygon class="cls-1" points="130.3 170.7 135.56 195.86 167.59 191.36 149.56 152.38 130.3 170.7"/>
      <polygon class="cls-24" points="135.56 142.01 130.3 170.7 149.56 152.38 135.56 142.01"/>
      <polygon class="cls-33" points="135.56 142.01 126.55 138.02 122.23 156.36 130.3 170.7 135.56 142.01"/>
      <polygon class="cls-7" points="122.23 156.36 122.23 168.07 130.3 170.7 122.23 156.36"/>
      <polygon class="cls-12" points="122.23 168.07 108.89 227.79 130.3 170.7 122.23 168.07"/>
      <polygon class="cls-6" points="156.97 132.5 144.2 123.05 142.7 119.63 138.19 119.63 135.56 132.5 126.55 138.02 135.56 142.01 156.97 132.5"/>
      <polygon class="cls-28" points="156.97 132.5 135.56 142.01 149.56 152.38 156.97 132.5"/>
      <polygon class="cls-35" points="156.97 132.5 135.05 89.42 142.7 119.63 144.2 123.05 156.97 132.5"/>
      <polygon class="cls-4" points="211.07 205.63 238.76 258.82 244.42 253.11 244.42 222.16 207.75 180.77 210.27 205.63 211.07 205.63"/>
      <polygon class="cls-3" points="238.76 258.82 211.07 205.63 210.27 205.63 217.91 281.01 238.24 259.35 238.76 258.82"/>
      <polygon class="cls-27" points="138.19 119.63 64.94 52 135.56 132.5 138.19 119.63"/>
      <polygon class="cls-31" points="64.94 52 126.55 138.02 135.56 132.5 64.94 52"/>
      <polygon class="cls-22" points="167.59 108.72 135.05 89.42 156.97 132.5 167.59 108.72"/>
      <polygon class="cls-15" points="149.56 152.38 188.5 140.22 200.55 136.46 167.59 108.72 156.97 132.5 149.56 152.38"/>
      <polygon class="cls-26" points="200.55 136.46 188.5 140.22 218.43 145.31 200.55 136.46"/>
      <polygon class="cls-34" points="188.88 170.64 195.26 153.58 188.5 140.22 149.56 152.38 188.76 170.65 188.88 170.64"/>
      <polygon class="cls-21" points="244.42 166.73 244.42 149.87 244.18 149.69 218.43 145.31 188.5 140.22 195.26 153.58 244.42 166.73"/>
      <polygon class="cls-23" points="188.6 195.86 207.75 291.84 196.36 199.44 188.6 195.86"/>
      <polygon class="cls-26" points="217.91 281.01 207.75 180.77 201.74 190.63 196.36 199.44 207.75 291.84 207.75 291.84 212.83 286.43 217.91 281.01"/>
      <polygon class="cls-29" points="244.42 253.43 244.42 253.11 238.76 258.82 238.24 259.35 238.24 259.35 241.33 270.95 244.42 282.54 281.53 246.82 318.64 211.1 294.41 202.67 276.97 220.46 244.42 253.43"/>
      <polygon class="cls-11" points="187.56 171.96 174.25 205.63 184.57 194.01 188.06 170.7 187.56 171.96"/>
      <polygon class="cls-1" points="195.26 153.58 188.88 170.64 244.42 166.94 244.42 166.73 195.26 153.58"/>
      <polygon class="cls-26" points="244.42 166.94 188.88 170.64 188.76 170.65 149.56 152.38 167.59 191.36 187.56 171.96 188.06 170.7 207.75 180.77 244.42 222.16 244.42 166.94"/>
      <polygon class="cls-1" points="201.74 190.63 207.75 180.77 188.06 170.7 201.74 190.63"/>
      <polygon class="cls-10" points="201.74 190.63 188.06 170.7 184.57 194.01 188.6 195.86 196.36 199.44 201.74 190.63"/>
      <polygon class="cls-4" points="222.98 134.21 244.18 149.69 244.42 149.87 235.14 123.05 233.23 122.64 196.36 114.78 222.98 134.21"/>
      <polygon class="cls-14" points="244.42 149.73 244.48 149.87 267.36 149.87 235.14 123.05 244.42 149.87 244.42 149.73"/>
      <polygon class="cls-4" points="276.97 220.46 294.41 202.67 267.36 149.87 244.48 149.87 276.97 220.46"/>
      <polygon class="cls-28" points="244.42 166.94 244.42 222.16 244.42 253.11 244.42 253.43 276.97 220.46 244.48 149.87 244.42 149.73 244.42 149.87 244.42 166.73 244.42 166.94"/>
    </g>
    <polygon class="cls-26" points="575.15 512.58 424.44 473.51 555.03 407.05 420.21 349.12 407.5 321.29 513.39 336.97 606.56 369.99 621.64 396.11 633.64 434.44 575.15 512.58"/>
    <polygon class="cls-18" points="420.21 349.12 555.03 407.05 424.44 473.51 407.5 443.05 407.5 369.99 420.21 349.12"/>
    <polygon class="cls-37" points="429.76 378.77 234.47 287.01 234.47 543.48 429.76 634.3 429.76 378.77"/>
    <polygon class="cls-38" points="429.76 378.77 636.59 292.77 637.06 545.83 429.76 634.3 429.76 378.77"/>
    <polygon class="cls-36" points="235.88 285.48 439.65 198.89 635.18 291.24 429.76 378.77 235.88 285.48"/>
    <polyline class="cls-41" points="296.88 573.07 296.53 320.38 503.01 231.09"/>
    <polyline class="cls-41" points="566.29 261.04 362.51 349.16 362.51 603.02"/>
    <polyline class="cls-41" points="234.47 459.43 429.76 550.13 636.9 463.91"/>
    <polyline class="cls-41" points="234.47 374.82 429.76 463.78 636.59 379.43"/>
    <polyline class="cls-41" points="499.12 606.27 499.12 351.72 305 258.81"/>
    <polyline class="cls-41" points="566.29 577.38 566.29 322.88 372.18 229.92"/>
    <polyline class="cls-9" points="374.18 233.13 567.59 323.49 567.59 576.62"/>
    <path class="cls-20" d="m285.29,402.44l-50.59-32.24v-44.71l26.35,12.24-.43-14.45,36.31,14.92v60.94s-5.15,7.43-11.65,3.29Z"/>
    <polygon class="cls-1" points="438.6 224.32 490.36 202.03 561.06 229.92 503.01 256.48 438.6 224.32"/>
    <polygon class="cls-33" points="467.32 229.27 467.32 238.89 494.88 252.09 503.36 256.15 556.58 232 556.58 223.34 467.32 229.27"/>
    <g>
      <path class="cls-29" d="m523.9,204.46l-56.58,24.81,36.04,17.01,53.22-22.94-32.68-18.88Zm.64,1.77l3.33,1.92-12.84,5.75-3.67-1.73,13.18-5.94Zm-15.16,6.7l3.33,1.92-18.67,8.45-3.67-1.73,19.01-8.64Zm-8.73,12.74l3.33,1.92-6.25,2.88-3.67-1.73,6.59-3.07Zm-26.93,3.6l13.18-5.94,3.33,1.92-12.84,5.75-3.67-1.73Zm10.88,4.17l6.59-3.07,3.33,1.92-6.25,2.88-3.67-1.73Zm11.59,6.54l-3.67-1.73,6.59-3.07,3.33,1.92-6.25,2.88Zm9.46-4.7l-3.67-1.73,6.59-3.07,3.33,1.92-6.25,2.88Zm1.54-8.56l-3.67-1.73,6.59-3.07,3.33,1.92-6.25,2.88Zm8.38-4.13l-3.67-1.73,6.59-3.07,3.33,1.92-6.25,2.88Z"/>
      <polygon class="cls-33" points="486.89 223.34 473.71 229.29 477.38 231.02 490.22 225.27 486.89 223.34"/>
      <polygon class="cls-33" points="527.87 208.16 524.54 206.24 511.35 212.18 515.03 213.91 527.87 208.16"/>
      <polygon class="cls-33" points="512.71 214.86 509.37 212.94 490.36 221.58 494.04 223.31 512.71 214.86"/>
      <polygon class="cls-33" points="491.18 230.39 484.59 233.45 488.26 235.19 494.51 232.31 491.18 230.39"/>
      <polygon class="cls-33" points="503.97 227.61 500.64 225.68 494.05 228.75 497.72 230.48 503.97 227.61"/>
      <polygon class="cls-33" points="503.51 224.99 507.18 226.72 513.43 223.84 510.1 221.92 503.51 224.99"/>
      <polygon class="cls-33" points="511.89 220.86 515.56 222.59 521.81 219.72 518.48 217.79 511.89 220.86"/>
      <polygon class="cls-33" points="492.51 238.25 496.18 239.99 502.43 237.11 499.1 235.19 492.51 238.25"/>
      <polygon class="cls-33" points="501.97 233.55 505.64 235.28 511.89 232.41 508.56 230.48 501.97 233.55"/>
    </g>
    <polyline class="cls-2" points="526.22 204.82 577.99 184.99 556.58 223.34 503.36 246.28"/>
    <polygon class="cls-33" points="555.75 263.36 543.76 257.01 543.76 242.66 557.05 238.13 555.75 263.36"/>
    <polygon class="cls-33" points="452.7 266.04 461 261.04 461 245.71 450.59 238.13 452.7 266.04"/>
    <polygon class="cls-25" points="503.01 256.48 438.6 224.32 439.82 259.83 452.7 266.04 452.7 244.13 489.55 262.4 489.55 283.82 498.47 288.13 509.74 283.25 509.74 260.36 555.76 239.99 555.73 263.34 561.06 261.04 561.06 229.92 503.01 256.48"/>
  </g>
  <g id="Folder_paper">
    <polygon class="cls-17" points="217.65 329.57 232.88 375.28 287.06 400.68 278.03 353.86 217.65 329.57"/>
  </g>
  <g id="Folder_cover">
    <polygon class="cls-11" points="286.35 397.58 265.41 366.99 212.94 343.93 234.35 382.28 289.18 403.69 286.35 397.58"/>
  </g>
  <g id="Pointillé">
    <g>
      <path class="cls-39" d="m229.83,334.8s-1.89-1.14-5.09-3.17"/>
      <path class="cls-40" d="m214.61,324.97c-35.09-23.74-112.08-82.89-22.72-91.84,99.07-9.92,327.37,100.5,379.58,126.55"/>
      <path class="cls-39" d="m576.89,362.41c3.48,1.76,5.35,2.72,5.35,2.72"/>
    </g>
    <g>
      <path class="cls-39" d="m664.16,451.72s1.8,1.23,4.89,3.47"/>
      <path class="cls-42" d="m678.45,462.25c36.8,28.55,125.54,107.62,31.02,142.57-96.43,35.65-210.29,24.51-246.61,19.62"/>
      <path class="cls-39" d="m457.04,623.62c-3.85-.57-5.92-.94-5.92-.94"/>
    </g>
  </g>

  <g id="Orb_B">
    <circle class="cls-5" cx="352.05" cy="527.1" r="38.64"/>
  </g>
  <g id="Orb_A">
    <circle class="cls-32" cx="635.88" cy="671.39" r="23.69"/>
  </g>
  <g id="Pink_line">
    <path class="cls-29" d="m608.09,379.24l-.26-20.81-16.56-10.91c-1.35-.97-3.16-1.3-4.9-.61l-45.49,18.14c-1.95.78-3.23,2.67-3.23,4.77l.99,221.82c0,2.23,1.39,4.03,3.24,4.77h0s0,0,0,0c.04.02.08.03.12.05l22.55,8.94,14.32-22.23,12.3-4.9c1.95-.78,3.23-2.67,3.23-4.77v-41.49l13.69-152.76Z"/>
    <path class="cls-13" d="m561.89,607.05l45.49-18.14c1.95-.78,3.23-2.67,3.23-4.77l-.99-221.82c0-3.63-3.66-6.11-7.04-4.77l-45.49,18.14c-1.95.78-3.23,2.67-3.23,4.77l.99,221.82c0,3.63,3.66,6.11,7.04,4.77Z"/>
  </g>
  <g id="blue_line">
    <path class="cls-29" d="m553.33,448l11.22-19.96-28.04-11.77c-1.35-.97-3.16-1.3-4.9-.61l-45.49,18.14c-1.95.78-3.23,2.67-3.23,4.77v173.88c0,2.23,1.39,4.03,3.24,4.77h0s0,0,0,0c.04.02.08.03.12.05l29.21,11.94,7.66-25.23,12.3-4.9c1.95-.78,3.23-2.67,3.23-4.77v-41.49l14.68-104.83Z"/>
    <path class="cls-26" d="m516.8,627.88l45.49-18.14c1.95-.78,3.23-2.67,3.23-4.77v-173.88c0-3.63-3.66-6.11-7.04-4.77l-45.49,18.14c-1.95.78-3.23,2.67-3.23,4.77v173.88c0,3.63,3.66,6.11,7.04,4.77Z"/>
  </g>
  <g id="green_line">
    <path class="cls-11" d="m497.86,525.48l11.22-19.96-28.04-11.77c-1.35-.97-3.16-1.3-4.9-.61l-45.49,18.14c-1.95.78-3.23,2.67-3.23,4.77v117.41c0,2.23,1.39,4.03,3.24,4.77h0s0,0,0,0c.04.02.08.03.12.05l29.21,11.94,7.66-25.23,12.3-4.9c1.95-.78,3.23-2.67,3.23-4.77v-41.49l14.68-48.36Z"/>
    <path class="cls-2" d="m461.33,648.89l45.49-18.14c1.95-.78,3.23-2.67,3.23-4.77v-117.41c0-3.63-3.66-6.11-7.04-4.77l-45.49,18.14c-1.95.78-3.23,2.67-3.23,4.77v117.41c0,3.63,3.66,6.11,7.04,4.77Z"/>
  </g>
  </g>
</svg>