<?xml version="1.0" encoding="UTF-8"?>
<svg xmlns="http://www.w3.org/2000/svg" xmlns:xlink="http://www.w3.org/1999/xlink" viewBox="0 0 440.47 319.06">
  <defs>
    <style>
      .cls-1 {
        fill: #80a6c1;
      }

      .cls-1, .cls-2, .cls-4, .cls-5, .cls-6, .cls-7, .cls-8, .cls-9 {
        stroke-width: 0px;
      }

      .cls-10 {
        stroke: #fff;
        stroke-miterlimit: 5;
        stroke-width: 3px;
      }

      .cls-10, .cls-4 {
        fill: #fff;
      }

      .cls-2 {
        fill: url(#Dégradé_sans_nom_9);
      }

      .cls-5 {
        fill: #4c4294;
      }

      .cls-6 {
        fill: #97bcc5;
      }

      .cls-7 {
        fill: #acb9ea;
      }

      .cls-8 {
        fill: #7087c5;
      }

      .cls-9 {
        fill: #5956c1;
      }


      @keyframes moveUpDown {
        0% {
          transform: translateY(0);
        }
        50% {
          transform: translateY(10px); 
        }
        100% {
          transform: translateY(0);
        }
      }

      #Speech_bubble, #Smiley {
        animation: moveUpDown 3s ease-in-out infinite; 
      }

        @keyframes shrinkYBlue {
          0%, 100% {
            transform: scaleY(1);
          }
          50% {
            transform: scaleY(1.2); /* Adjust the scale factor as needed */
          }
        }

        #Blue {
          transform-origin: center bottom;
          transform-box: fill-box;
          animation: shrinkYBlue 4s ease-in-out infinite; /* Adjust the duration (4s in this case) */
        }


        @keyframes shrinkYPurple {
          0%, 100% {
            transform: scaleY(1);
          }
          50% {
            transform: scaleY(0.9); /* Adjust the scale factor as needed */
          }
        }

        #Purple {
          transform-origin: center bottom;
          transform-box: fill-box;
          animation: shrinkYPurple 6s ease-in-out infinite; /* Adjust the duration (4s in this case) */
        }
                
@keyframes left_in_1 {
  0% {
    transform: translateY(0) scaleX(0);
  }
  25% {
    transform: translateY(5px) scaleX(0);
  }

  75% {
    transform: translateY(5px) scaleX(1);
    opacity: 1;
  }
  100% {
    transform: translateY(0) scaleX(1);
    opacity: 0;
  }
}

@keyframes left_in_2 {
  0% {
    transform: translateY(0) scaleX(0);
  }
  25% {
    transform: translateY(0) scaleX(0);
  }
  40% {
    transform: translateY(5px) scaleX(0);
  }
  75% {
    transform: translateY(5px) scaleX(1);
    opacity: 1;
  }
  100% {
    transform: translateY(0) scaleX(1);
    opacity: 0;
  }
}

@keyframes left_in_3 {
  0% {
    transform: translateY(0) scaleX(0);
  }
  40% {
    transform: translateY(0) scaleX(0);
  }
  50% {
    transform: translateY(5px) scaleX(0);
  }

  70% {
    transform: translateY(5px) scaleX(1);
    opacity: 1;
  }
  100% {
    transform: translateY(0) scaleX(1);
    opacity: 0;
  }
}
          #line_1 {
          transform-origin: center left;
          transform-box: fill-box;
          animation: left_in_1 3s ease-in-out infinite;
        }

       #line_2 {
          transform-origin: center left;
          transform-box: fill-box;
          animation: left_in_2 3s ease-in-out infinite;
        }

       #line_3 {
          transform-origin: center left;
          transform-box: fill-box;
          animation: left_in_3 3s ease-in-out infinite;
        }



    </style>
    <linearGradient id="Dégradé_sans_nom_9" data-name="Dégradé sans nom 9" x1="88.02" y1="206.84" x2="340.99" y2="206.84" gradientUnits="userSpaceOnUse">
      <stop offset="0" stop-color="#7b69f2"/>
      <stop offset="0" stop-color="#7b69f2"/>
      <stop offset=".15" stop-color="#945edc"/>
      <stop offset=".41" stop-color="#bc4cb8"/>
      <stop offset=".62" stop-color="#d541a3"/>
      <stop offset=".75" stop-color="#df3e9b"/>
    </linearGradient>
  </defs>

  <g id="Purple">
    <path class="cls-9" d="m365.61,49.04l11.22-19.96-28.04-11.77c-1.35-.97-3.16-1.3-4.9-.61l-45.49,18.14c-1.95.78-3.23,2.67-3.23,4.77l1.42,203.46c0,2.23,1.39,4.03,3.24,4.77h0s0,0,0,0c.04.02.08.03.12.05l29.21,11.94,7.66-25.23,12.3-4.9c1.95-.78,3.23-2.67,3.23-4.77v-41.49l13.26-134.4Z"/>
    <path class="cls-8" d="m331.51,259.49l45.49-18.14c1.95-.78,3.23-2.67,3.23-4.77l-1.42-203.46c0-3.63-3.66-6.11-7.04-4.77l-45.49,18.14c-1.95.78-3.23,2.67-3.23,4.77l1.42,203.46c0,3.63,3.66,6.11,7.04,4.77Z"/>
  </g>
  <g id="Blue">
    <path class="cls-7" d="m321.5,78.71l-28.04-11.77c-1.35-.97-3.16-1.3-4.9-.61l-45.49,18.14c-1.95.78-3.23,2.67-3.23,4.77v173.88c0,2.23,1.39,4.03,3.24,4.77h0s0,0,0,0c.04.02.08.03.12.05l29.21,11.94,41.78-16.07"/>
    <path class="cls-1" d="m274.75,279.55l45.49-18.14c1.95-.78,3.23-2.67,3.23-4.77V82.75c0-3.63-3.66-6.11-7.04-4.77l-45.49,18.14c-1.95.78-3.23,2.67-3.23,4.77v173.88c0,3.63,3.66,6.11,7.04,4.77Z"/>
  </g>
  <g id="Main">
    <rect class="cls-2" x="88.02" y="132.66" width="252.97" height="148.36"/>
    <circle class="cls-5" cx="212.59" cy="208.93" r="16.59"/>
    <polygon class="cls-4" points="207.51 201.84 207.51 216.62 221.4 209.23 207.51 201.84"/>
    <circle class="cls-5" cx="336.99" cy="217.9" r="31.37"/>
    <path class="cls-5" d="m310.04,234.32s20.19,22.48,15.19,39.57h16.41v-43.17l-31.6,3.6Z"/>
    <path class="cls-5" d="m364.57,234.32s-20.79,22.48-15.8,39.57c-13.55,0-15.8,0-15.8,0v-43.17s31.6,3.6,31.6,3.6Z"/>
    <path class="cls-6" d="m325.23,273.17h23.96v7.45c0,6.61-5.37,11.98-11.98,11.98h0c-6.61,0-11.98-5.37-11.98-11.98v-7.45h0Z"/>
    <rect class="cls-5" x="325.23" y="278.58" width="23.96" height="1.33"/>
    <rect class="cls-9" x="325.23" y="265.61" width="23.96" height="7.56"/>
  </g>
  <g id="Ampoule">
    <line class="cls-10" x1="296.25" y1="211.11" x2="279.33" y2="212.09"/>
    <line class="cls-10" x1="298.12" y1="203.11" x2="282.39" y2="194.72"/>
    <line class="cls-10" x1="302.71" y1="196.76" x2="295.03" y2="182.66"/>
  </g>
  <g id="Speech_bubble">
    <path class="cls-4" d="m186.12,46.86H61.88c-8.77,0-15.88,7.11-15.88,15.88v55.06c0,8.77,7.11,15.88,15.88,15.88h87.18s10.59,27.92,39.53,32.67c-13.41-32.67-2.47-32.67-2.47-32.67,8.77,0,15.88-7.11,15.88-15.88v-55.06c0-8.77-7.11-15.88-15.88-15.88Z"/>
    <path class="cls-4" d="m161.78,207.45c-9.85.9-16.69.72-21.43,0v-42.63c0-8.77-7.11-15.88-15.88-15.88H46.82c-8.77,0-15.88,7.11-15.88,15.88v55.06c0,8.77,7.11,15.88,15.88,15.88h77.65c4.22,0,8.05-1.66,10.89-4.35,9.1-3.75,19.87-10.79,26.42-23.97Z"/>
  </g>
  <g id="Bubble_content">
    <rect id="line_1" class="cls-5" x="62.35" y="64.86" width="120.54" height="4.83"/>
    <rect id="line_2" class="cls-5" x="62.35" y="78.88" width="120.54" height="4.83"/>
    <rect id="line_3" class="cls-5" x="62.35" y="99.28" width="55.41" height="4.83"/>
  </g>
  <g id="Smiley">
    <path class="cls-5" d="m82.86,164.87c-15.24,0-27.6,12.36-27.6,27.6s12.36,27.6,27.6,27.6,27.6-12.36,27.6-27.6-12.36-27.6-27.6-27.6Zm7.78,20.34h6.37v6.37h-6.37v-6.37Zm-23.35,0h6.37v6.37h-6.37v-6.37Zm15.57,26.71c-13.44,0-15.57-12.74-15.57-12.74h31.14s-2.12,12.74-15.57,12.74Z"/>
  </g>
</svg>