<?xml version="1.0" encoding="UTF-8"?>
<svg xmlns="http://www.w3.org/2000/svg" viewBox="0 0 546.69 508.28" style="width: 100%; height: 100%;">
  <defs>
    <style>
/* Animation keyframes */
          @keyframes pulseAnimation {
            0% { transform: scale(1); }
            30% { transform: scale(1.05); }
            60% { transform: scale(1.04); }
            80% { transform: scale(1.05); }
            100% { transform: scale(1.04); }
          }

        @keyframes pulseAnimationpurple {
            0% { transform: scale(1); }
            30% { transform: scale(1.05) translateX(-10px); }
            60% { transform: scale(1.04) translateX(-10px); }
            80% { transform: scale(1.05) translateX(-11px); }
            100% { transform: scale(1.04) translateX(-10px); }
          }

          @keyframes reversePulseAnimation {
            0% { transform: scale(1.04); }
            30% { transform: scale(1); }
            60% { transform: scale(1.01); }
            100% { transform: scale(1); }
          }

          @keyframes brain_side_purple {
            0% { transform: translateX(0px); }
            50% { transform: translateX(12px); }
            80% { transform: translateX(9px); }
            100% { transform: translateX(11px); }  
          }
          
/* Hover effects and animations */
          #Brain_blue:not(:hover), #Brain_purple:not(:hover) {
            animation: reversePulseAnimation 1.4s ease-in-out;
            transform: scale(1) ;
          }

          #Brain_blue:hover {
            animation: pulseAnimation 1.4s ease-in-out;
            transform: scale(1.04);
          }

        #Brain_purple:hover {
          animation: pulseAnimationpurple 1.4s ease-in-out;
          transform: scale(1.04) translateX(-10px);
        }

        #Brain_blue:hover ~ #Brain_purple {
            animation: brain_side_purple 1s ease-in-out; 
            transform: translateX(11px);
        }

/* SVG styles */
          @keyframes dash {
            to {
              stroke-dashoffset: -30;
            }
          }

          .cls-1 {
            fill: #6d87c5;
          }

          .cls-1, .cls-2, .cls-3 {
            stroke-width: 0px;
          }

          .cls-2 {
            fill: #6e57c3;
          }

          .cls-4 {
            fill: #0c0c0d;
          }

          .cls-3 {
            fill: none;
            stroke: #fff;
            stroke-dasharray: 0 0 15 15;
            stroke-miterlimit: 5;
            stroke-width: 3px;
            animation: dash 0.3s linear infinite;
          }

    </style>

  </defs>
  <g id="Pointillé">
    <path class="cls-3" d="m135.21,445.31c-32.75,0-59.29-31.52-59.29-70.41,0-21.87,8.4-41.42,21.58-54.33"/>
    <path class="cls-3" d="m115.53,202.75s-29.65-53.65,5.65-91.76c35.29-38.12,20.47-72.71,3.53-72s-34.59,49.41,39.53,56.47"/>
    <path class="cls-3" d="m358.91,220.1s223.76-2.12,142.59,86.82"/>
  </g>
  
  <g id="Brain_blue" data-name="Brain blue">
    <path class="cls-1" d="m213.49,402.59c-13.69,0-26.42-5.49-35.84-15.47l-2.67-2.83,1.77-.97c-2.72,1.18-5.64,2.06-8.55,2.66l-1.18.26-1.11-.61c-1.56-.95-38.23-23.56-38.23-47.37,0-10.22,3.11-20.04,9-28.38l.57-.81c-.66.04-1.33.06-2.02.06l-2.03-.02-.88-1.3c-5.5-8.16-8.41-17.67-8.41-27.51,0-11.59,4.04-22.71,11.43-31.56l-.18-.26-.08.06-1.65-3.09c-3.78-7.09-5.77-15.08-5.77-23.13,0-22.28,15.02-41.85,36.53-47.61l1.64-.44c-1.9-2.82-3.08-5.6-3.74-7.46l-.19-.53.02-.56c.37-12.87,5.66-24.9,14.89-33.89,9.25-9.01,21.46-13.97,34.38-13.97,9.16,0,26.06,2.68,33.95,7.72l1.39.88v106.91l-.72.71.72-.53v156.32l-1.05.9c-8.92,7.62-20.28,11.82-32.01,11.82Zm-12.09-39.87c-.32.11-.65.19-.99.26.3-.02.63-.08.99-.26Zm-43.46-67.05c-.04-.06-.08-.12-.12-.19l-.06.12.05-.08.13.14Zm-1.49-53.34c.03-.07.06-.14.09-.2.04-.1.09-.2.14-.3h-.14s-.08.5-.08.5Zm58.6-1.25v-.21s-.03-.02-.03-.02c.01.08.02.15.03.23Z"/>
    <path class="cls-4" d="m211.21,120.86c9.15,0,25.16,2.67,32.34,7.25v104c-2.99,2.94-9.47,8.14-17.89,8.14-2.6,0-5.39-.5-8.32-1.71-1.78-8.53-6.6-17.15-7.4-18.54l-4.94,2.84c3.98,6.92,9.29,19.91,6.58,25.28-.47.94-1.45,2.23-4.44,2.58l.65,5.67c5.28-.61,7.74-3.42,8.87-5.67.87-1.73,1.26-3.73,1.31-5.87,2.63.79,5.15,1.13,7.55,1.13,7.49,0,13.74-3.29,18.02-6.46v148.99c-8.09,6.92-18.58,11.1-30.06,11.1-13.26,0-25.21-5.59-33.65-14.53,5.15-2.82,10.08-7.13,12.14-13.21.72-2.12,1.08-4.45,1-7.01,2.3.72,4.54,1.16,6.65,1.16.32,0,.64,0,.95-.03,2.89-.19,4.87-2.21,7.15-6.61l-4.53-2.05c-1.22,2.36-2.91,2.73-4.08,2.81-.16.01-.33.02-.49.02-7.27,0-20.77-9.75-27.73-16.06l-4.82,3.66c1.41,1.28,12.16,9.6,21.68,14.59,2.85,16.44-19.39,20.55-20.27,20.74,0,0-36.79-22.41-36.79-44.81,0-9.93,3.13-19.11,8.45-26.65,0,0,0,0,0,0,4.84-.58,10.03-2.26,14.37-5.89,1.72-1.44,3.3-3.18,4.67-5.27,1.47,1.67,3.11,3,4.94,3.76,1.01.42,2.28.77,3.76.77,1.78,0,3.86-.5,6.12-1.96l-3.1-4.79c-1.24.8-2.24,1.05-3.03,1.05-.63,0-1.14-.16-1.53-.33-5.5-2.31-10.08-15.66-11.69-23.53l-5.59,1.13c.32,1.56,2.36,11.08,6.54,18.67-4.59,9.18-13.41,10.89-19.35,10.89-.14,0-.28,0-.42,0-4.98-7.38-7.89-16.27-7.89-25.84,0-12.08,4.63-23.08,12.21-31.32-.02-.03-.04-.06-.06-.1,3.03-2.36,7.53-4.47,14.02-4.5-.75,4.65.97,8.56,1.06,8.76l5.21-2.32s-1.65-3.89-.07-7.49c1.11-2.52,3.61-4.47,7.42-5.78l-1.86-5.39c-4.3,1.48-7.46,3.7-9.47,6.59-.75-.04-1.48-.06-2.19-.06-7.68,0-13.22,2.46-17.09,5.36-3.45-6.48-5.42-13.86-5.42-21.71,0-21.42,14.56-39.42,34.31-44.71,4.25,5.32,10.66,9.8,19.69,9.85,1.6,3.81,4.4,7.41,9.01,10.1l2.88-4.92c-11.9-6.95-7.08-21.19-6.85-21.86,0,0,0,0,0,0l-2.69-.95-2.68-.96c-1.1,3.08-1.93,7.86-1.23,12.84-11.63-.93-16.57-11.36-18.18-15.87.72-24.94,21.15-44.95,46.26-44.95m0-6c-13.7,0-26.65,5.26-36.47,14.82-9.79,9.54-15.4,22.31-15.79,35.95l-.03,1.12.38,1.06c.44,1.24,1.09,2.85,2,4.62-21.66,6.8-36.6,27-36.6,49.88,0,8.53,2.12,17.02,6.12,24.54l.32.61-.22.17.69,1c-6.91,9.07-10.67,20.14-10.67,31.66,0,10.44,3.08,20.54,8.92,29.19l1.75,2.6h.11c-4.61,7.94-7.03,16.9-7.03,26.18,0,11.04,6.85,22.9,20.35,35.24,9.52,8.7,18.92,14.46,19.32,14.7l2.06,1.26,2.36-.52h.03c1.7-.36,3.43-.81,5.13-1.37l1.53,1.62c9.99,10.58,23.49,16.41,38.02,16.41,12.44,0,24.5-4.45,33.96-12.54l2.1-1.8V124.82l-2.77-1.77c-8.76-5.59-26.4-8.19-35.57-8.19h0Z"/>
  </g>
  <g id="Brain_purple" data-name="Brain purple">
    <path class="cls-2" d="m280.18,383.07c-10.27,0-20.24-3.68-28.05-10.36l-1.05-.9v-229.13l1.39-.88c7.23-4.61,22-6.76,29.7-6.76,21.92,0,39.53,16.03,41.89,38.11l.02.17v.18c-.04,4.17-1.08,7.72-3.01,10.54.09,0,.18-.01.28-.01h1.44l.32.39c18.88,5.06,31.97,22.06,31.97,41.72,0,7.65-2.04,15.18-5.9,21.77l-.67,1.15.45.56c6.14,7.72,9.38,17.01,9.38,26.86,0,10.56-3.87,20.74-10.88,28.65l-.61.69c.57.18,1.16.32,1.76.45l1.45.29.65,1.33c2.9,5.94,4.38,12.3,4.38,18.93,0,22.84-17.85,41.79-40.64,43.12l-1.18.07s-1.06-.87-1.14-.94l-2.03,1.95c-8.09,7.77-18.71,12.05-29.91,12.05Z"/>
    <path class="cls-4" d="m282.16,138.03c20.74,0,36.75,15.25,38.91,35.42-.08,7.65-4.11,14.19-15,15.06.61-4.33-.11-8.48-1.07-11.15l-2.33.84-2.33.83s0,0,0,0c.2.58,4.38,12.95-5.95,18.98l2.5,4.28c4-2.33,6.43-5.46,7.82-8.77,7.46-.04,16-6.51,16.63-6.51.03,0,.04.01.04.05,17.62,4.27,30.7,20.13,30.7,39.06,0,7.39-2,14.3-5.49,20.25-4.03-1.2-7.25-3.53-9.31-5.37.49-1.07.93-2.2,1.28-3.42l-4.42-2.68c-.49,2.25-1.32,4.19-2.35,5.85l-.91.73s.09.11.24.28c-5.36,7.46-15.02,8.86-15.56,8.93l.63,4.91c.16-.02,11.69-1.62,18.51-10.37,2.75,2.29,6.85,5.01,11.91,6.23,5.46,6.86,8.73,15.54,8.73,25,0,10.23-3.83,19.56-10.13,26.66-1.58-.76-3.12-1.82-4.55-3.29,3.72-2.3,6.45-5.5,7.89-7.95l-2.13-1.26-2.13-1.26s0,0,0,0c-.27.45-5.2,8.46-13.5,8.46-1.52,0-3.16-.27-4.9-.9l-1.69,4.65c2.29.83,4.48,1.19,6.54,1.19,1.84,0,3.58-.29,5.21-.78,3.53,4.2,7.79,6.33,12.06,7.2,2.6,5.32,4.07,11.29,4.07,17.61,0,21.4-16.72,38.89-37.82,40.13-3.47-2.86-8.42-8.27-10.34-16.91,2.91-3.6,4.7-8.61,5.15-9.98l-5.03-1.06c-1.41,4.27-4.22,9.29-5.88,9.62-.03,0-.06,0-.09,0-.48,0-1.51-.6-2.83-2.9l-4.7,3c.62,1.09,1.28,2.01,1.98,2.76,1.48,1.6,3.11,2.41,4.87,2.41.39,0,.8-.04,1.2-.12.21-.04.4-.12.6-.18,1.75,6.36,4.9,11.05,7.93,14.34.3.33.6.63.9.93-7.22,6.94-17.03,11.21-27.84,11.21-9.97,0-19.08-3.63-26.1-9.64v-78.57c3.71,2.97,9.55,6.41,16.69,6.41,1.88,0,3.87-.26,5.92-.82v-5.17c-2.11.72-4.13,1.03-6.03,1.03-8.54,0-14.77-6.14-16.58-8.14v-140.83c6.24-3.98,20.14-6.29,28.08-6.29m0-6c-8.05,0-23.57,2.3-31.31,7.23l-2.77,1.77v232.15l2.1,1.8c8.36,7.14,19.01,11.08,30,11.08,11.98,0,23.34-4.58,31.99-12.89l.12-.12,2.32-.14c24.37-1.43,43.47-21.68,43.47-46.12,0-7.09-1.57-13.9-4.68-20.25l-1.22-2.49c5.93-7.95,9.16-17.61,9.16-27.6s-3.18-19.63-9.22-27.67c3.9-6.9,5.95-14.72,5.95-22.67,0-20.45-13.25-38.21-32.56-44.15.99-2.51,1.52-5.35,1.55-8.46v-.35s-.03-.35-.03-.35c-2.53-23.63-21.4-40.79-44.88-40.79h0Z"/>
  </g>
</svg>



