<?xml version="1.0" encoding="UTF-8"?>
<svg xmlns="http://www.w3.org/2000/svg" width="1595.18" height="775.06" viewBox="0 0 1595.18 775.06">
  <defs>
    <style>
      .cls-1 {
        fill: #9d8ec2;
      }

      .cls-1, .cls-2, .cls-3, .cls-4, .cls-5, .cls-6, .cls-7, .cls-8, .cls-9, .cls-10, .cls-11, .cls-12, .cls-13, .cls-14, .cls-15, .cls-16, .cls-17, .cls-18, .cls-19, .cls-20, .cls-21, .cls-22, .cls-23, .cls-24, .cls-25, .cls-26, .cls-27, .cls-28, .cls-29, .cls-30, .cls-31, .cls-32 {
        stroke-width: 0px;
      }

      .cls-2 {
        fill: #80a6c1;
      }

      .cls-3 {
        fill: #9ea4be;
      }

      .cls-4 {
        fill: #655dc3;
      }

      .cls-5 {
        fill: #050505;
      }

      .cls-6 {
        fill: #ad29ae;
      }

      .cls-33, .cls-34, .cls-35, .cls-36, .cls-37, .cls-38, .cls-39 {
        stroke-miterlimit: 5;
      }

      .cls-33, .cls-34, .cls-35, .cls-36, .cls-38, .cls-39 {
        fill: none;
      }

      .cls-33, .cls-34, .cls-36, .cls-38, .cls-39 {
        stroke: #fff;
        stroke-width: 4px;
      }

      .cls-8 {
        fill: #c47f9a;
      }

      .cls-34 {
        stroke-dasharray: 0 0 9.96 9.96;
      }

      .cls-9 {
        fill: #4ba2be;
      }

      .cls-10 {
        fill: #9fa5be;
      }

      .cls-11 {
        fill: #15a6a7;
      }

      .cls-12 {
        fill: #f7e9ff;
      }

      .cls-13 {
        fill: #c0599e;
      }

      .cls-14 {
        fill: #6850c2;
      }

      .cls-15 {
        fill: #7057c3;
      }

      .cls-16 {
        fill: #4d4db2;
      }

      .cls-17 {
        fill: #a079c2;
      }

      .cls-35, .cls-37 {
        stroke: #a896ed;
        stroke-width: 2px;
      }

      .cls-18 {
        fill: #8391c5;
      }

      .cls-19 {
        fill: #401aaa;
      }

      .cls-20 {
        fill: #7d7dc5;
      }

      .cls-21 {
        fill: #2975bb;
      }

      .cls-22 {
        fill: #b6bedb;
      }

      .cls-36 {
        stroke-dasharray: 0 0 10 10;
      }

      .cls-23 {
        fill: #a893bf;
      }

      .cls-37 {
        fill: #acb9ea;
      }

      .cls-24 {
        fill: #7087c5;
      }

      .cls-25 {
        fill: #6050c1;
      }

      .cls-26 {
        fill: #884fc2;
      }

      .cls-27 {
        fill: #5956c1;
      }

      .cls-38 {
        stroke-dasharray: 0 0 10.05 10.05;
      }

      .cls-28 {
        fill: #6244d3;
      }

      .cls-29 {
        fill: #ac9cbb;
      }

      .cls-30 {
        fill: #c26e9f;
      }

      .cls-39 {
        stroke-dasharray: 0 0 10.03 10.03;
      }

      .cls-31 {
        fill: #6776c5;
      }

      .cls-32 {
        fill: #bea79b;
      }


      @keyframes dash {
  to {
    stroke-dashoffset: -100;
  }
}

#low_ring, #top_ring {
  stroke-dasharray: 15 10; 
  animation: dash 6s linear infinite;
}


      @keyframes dash {
  to {
    stroke-dashoffset: -100;
  }
}

#middle_ring, #connecting {
  stroke-dasharray: 15 10; 
  animation: dash 3s linear infinite;
}

@keyframes moveUpDown {
  0% {
    transform: translateY(0);
  }
  50% {
    transform: translateY(15px); 
  }
  100% {
    transform: translateY(0);
  }
}

#Location_icon {
  animation: moveUpDown 2s ease-in-out infinite; 
}


    </style>
  </defs>
  <g id="Calque_5" data-name="Calque 5">
    <circle class="cls-37" cx="421.43" cy="380.43" r="290.3"/>
    <ellipse class="cls-35" cx="427.35" cy="380.43" rx="85.83" ry="290.3"/>
    <ellipse class="cls-35" cx="424.77" cy="380.43" rx="197.28" ry="290.3"/>
    <ellipse class="cls-35" cx="421.43" cy="386.4" rx="290.3" ry="85.83"/>
    <ellipse class="cls-35" cx="421.43" cy="388.99" rx="290.3" ry="197.28"/>
  </g>
  <g id="Shadow">
    <ellipse class="cls-5" cx="1248.58" cy="681.42" rx="258.21" ry="26.28"/>
  </g>
  <g id="Unicorn">
    <g>
      <polyline class="cls-14" points="1105.23 132.78 1056.08 108.52 1025.02 115.93 1066.32 150.69 1095.06 147.8 1062.08 123.96 1110.65 133.88"/>
      <polygon class="cls-15" points="1066.32 150.69 1089.07 161.95 1122.28 167.49 1095.06 147.8 1066.32 150.69"/>
      <polyline class="cls-2" points="1033.38 237.34 1011.73 244.19 984.91 225.11 1025.02 219.46 1033.38 237.34"/>
      <polygon class="cls-9" points="1025.02 219.46 1051.67 193.58 1033.38 237.34 1025.02 219.46"/>
      <polygon class="cls-18" points="984.91 225.11 951.49 265.11 987.26 284.06 1011.73 244.19 984.91 225.11"/>
      <polygon class="cls-17" points="951.49 265.11 978.32 193.58 984.91 225.11 951.49 265.11"/>
      <polygon class="cls-1" points="984.91 225.11 978.32 193.58 1002.43 170.64 1025.02 219.46 984.91 225.11"/>
      <polygon class="cls-24" points="1002.43 170.64 1051.67 193.58 1025.02 219.46 1002.43 170.64"/>
      <polygon class="cls-23" points="1002.43 170.64 984.91 157.65 978.32 193.58 1002.43 170.64"/>
      <polygon class="cls-30" points="984.91 157.65 973.61 152.64 968.2 175.61 978.32 193.58 984.91 157.65"/>
      <polygon class="cls-8" points="968.2 175.61 968.2 190.28 978.32 193.58 968.2 175.61"/>
      <polygon class="cls-13" points="968.2 190.28 951.49 265.11 978.32 193.58 968.2 190.28"/>
      <polygon class="cls-6" points="973.61 152.64 984.91 145.72 988.2 129.6 993.85 129.6 995.73 133.88 1011.73 145.72 984.91 157.65 973.61 152.64"/>
      <polygon class="cls-26" points="984.91 157.65 1002.43 170.64 1011.73 145.72 984.91 157.65"/>
      <polygon class="cls-32" points="1011.73 145.72 995.73 133.88 993.85 129.6 984.26 91.75 1011.73 145.72"/>
      <polygon class="cls-27" points="1084.84 161.25 1122.28 182.86 1122.28 167.49 1084.84 161.25"/>
      <polyline class="cls-4" points="1076.34 206.2 1079.5 237.34 1114.54 304.64 1122.28 296.64 1122.28 258.05 1076.34 206.2"/>
      <polyline class="cls-3" points="1079.5 237.34 1089.07 331.78 1114.54 304.64 1079.5 237.34"/>
      <polygon class="cls-25" points="988.2 129.6 896.43 44.87 984.91 145.72 988.2 129.6"/>
      <polygon class="cls-29" points="896.43 44.87 973.61 152.64 984.91 145.72 896.43 44.87"/>
      <polygon class="cls-21" points="984.26 91.75 1011.73 145.72 1025.02 115.93 984.26 91.75"/>
      <polygon class="cls-15" points="1011.73 145.72 1002.43 170.64 1066.32 150.69 1025.02 115.93 1011.73 145.72"/>
      <polygon class="cls-24" points="1051.22 155.4 1089.07 161.95 1066.32 150.69 1051.22 155.4"/>
      <polygon class="cls-31" points="1002.43 170.64 1051.67 193.58 1059.69 172.13 1051.22 155.4 1002.43 170.64"/>
      <polygon class="cls-20" points="1051.22 155.4 1059.69 172.13 1122.28 188.87 1122.28 167.49 1051.22 155.4"/>
      <polygon class="cls-19" points="1153.15 419.45 1121.28 403.09 1135.56 306.1 1179.46 394.14 1153.15 419.45"/>
      <polygon class="cls-19" points="1116.69 424.59 1116.55 436.7 1078.19 399.91 1077.51 344.1 1103.23 359.67 1128.86 403.09 1116.69 424.59"/>
      <polyline class="cls-22" points="1076.34 345.34 1062.08 229.59 1052.35 225.11"/>
      <polygon class="cls-6" points="1086.98 389.81 1027.28 450.52 1037.35 458.99 1122.28 416.64 1110.65 382.75 1086.98 389.81"/>
      <polygon class="cls-30" points="1075.83 439.22 1050.7 473.38 1014.47 508.98 1000.11 548.46 991.3 594.39 980.59 561.35 1007.4 484 1007.4 473.38 1030.8 447.74 1041.59 457.41 1075.83 439.22"/>
      <polygon class="cls-29" points="989.32 588.29 1013.63 636.28 1022.29 594.39 1005.81 575.85 1014.47 571.02 1007.4 551.68 1022.29 501.29 1014.47 508.98 1000.11 548.46 989.32 588.29"/>
      <polygon class="cls-19" points="1045.85 472.99 1122.28 439.23 1122.28 416.64 1069.29 443.06 1045.85 472.99"/>
      <polygon class="cls-19" points="1122.28 439.23 1153.59 427.93 1158.79 416.64 1122.28 416.64 1122.28 439.23"/>
      <polygon class="cls-26" points="1122.28 416.64 1110.65 382.75 1188.18 322.75 1158.79 416.64 1122.28 416.64"/>
      <polygon class="cls-31" points="1188.18 322.75 1203.26 296.64 1122.28 333.7 1110.65 382.75 1188.18 322.75"/>
      <polygon class="cls-4" points="1086.98 389.81 1078.48 398.45 1076.34 345.34 1114.54 304.64 1122.28 333.7 1110.65 382.75 1086.98 389.81"/>
      <polyline class="cls-24" points="1076.34 206.2 1062.08 229.59 1076.34 345.34 1089.07 331.78 1076.34 206.2"/>
      <polyline class="cls-27" points="1184.91 233.63 1215.26 244.19 1122.28 333.7 1114.54 304.64 1184.91 233.63"/>
      <polygon class="cls-16" points="1215.26 244.19 1247.73 263.62 1296.43 263.62 1203.26 296.64 1122.28 333.7 1215.26 244.19"/>
      <polygon class="cls-27" points="1153.59 427.93 1234.67 439.23 1176.18 361.08 1153.59 427.93"/>
      <polygon class="cls-24" points="1234.67 439.23 1385.38 400.15 1254.79 333.7 1389.61 275.77 1402.32 247.93 1296.43 263.62 1203.26 296.64 1188.18 322.75 1176.18 361.08 1234.67 439.23"/>
      <polygon class="cls-17" points="1389.61 275.77 1254.79 333.7 1385.38 400.15 1402.32 369.7 1402.32 296.64 1389.61 275.77"/>
      <polygon class="cls-27" points="1402.32 410.05 1385.38 400.15 1402.32 369.7 1402.32 410.05"/>
      <polygon class="cls-30" points="1402.32 296.64 1402.32 361.08 1422.79 331.78 1458.79 345.34 1402.32 247.93 1389.61 275.77 1402.32 296.64"/>
      <polygon class="cls-27" points="1402.32 247.93 1477.85 268.2 1488.43 322.75 1458.79 377.11 1458.79 345.34 1402.32 247.93"/>
      <polygon class="cls-27" points="1422.79 331.78 1402.32 361.08 1402.32 410.05 1424.2 416.64 1458.79 377.11 1458.79 345.34 1422.79 331.78"/>
      <polygon class="cls-15" points="1477.85 268.2 1514.55 300.87 1506.79 361.08 1449.64 439.23 1424.2 416.64 1458.79 377.11 1477.85 268.2"/>
      <polygon class="cls-24" points="1464.17 452.13 1473.61 452.13 1506.79 361.08 1449.64 439.23 1464.17 452.13"/>
      <polygon class="cls-3" points="1514.55 300.87 1526.55 343.58 1473.61 452.13 1506.79 361.08 1514.55 300.87"/>
      <polygon class="cls-19" points="1473.51 436.76 1486.76 519.05 1472.51 550.64 1466.37 508.03 1464.21 438.46 1473.51 436.76"/>
      <polygon class="cls-6" points="1443.45 521.37 1448.86 554.96 1442.18 602.46 1472.51 550.64 1466.37 508.03 1443.45 521.37"/>
      <polygon class="cls-30" points="1448.86 554.96 1410.56 641.8 1412.11 651.43 1401.75 671.63 1415.57 672.92 1418.61 651.77 1433.76 639.09 1442.18 602.46 1448.86 554.96"/>
      <polygon class="cls-29" points="1472.51 550.64 1442.75 626 1439.74 654.01 1427.91 656.17 1430.89 674.7 1424.22 686.6 1390.82 692.7 1401.75 671.63 1415.57 672.92 1418.61 651.77 1433.76 639.09 1442.18 602.46 1472.51 550.64"/>
      <polyline class="cls-19" points="1400.4 409.42 1414.67 452.29 1422.72 414.34 1400.4 409.42"/>
      <polygon class="cls-16" points="1407.28 487.08 1433.73 496.28 1438.81 510.01 1423.84 524.74 1403.66 506.16 1407.28 487.08 1352.4 408.26 1385.38 399.15 1402.32 409.69 1414.38 449.45 1433.73 496.28 1407.28 487.08"/>
      <polygon class="cls-30" points="1403.66 506.16 1350.19 585.49 1349.95 599.55 1337.51 614.25 1345.95 616.26 1376.98 580.6 1380.88 566.33 1420.11 521.3 1403.66 506.16"/>
      <polygon class="cls-29" points="1420.11 521.3 1423.84 524.74 1385.92 573.88 1382.96 593.52 1370.82 595.74 1364.65 628.61 1332.69 643.61 1337.51 614.25 1345.95 616.26 1376.98 580.6 1380.88 566.33 1420.11 521.3"/>
      <polygon class="cls-26" points="1418.81 408.4 1414.38 449.45 1443.45 521.37 1466.37 508.03 1464.21 438.46 1418.81 408.4"/>
      <polygon class="cls-19" points="1162.01 462.92 1162.01 540.55 1142.95 567.11 1143.65 527.03 1152.57 462.92 1162.01 462.92"/>
      <polygon class="cls-6" points="1118.95 535.42 1118.95 567.11 1104.83 609.51 1142.95 567.11 1143.65 527.03 1118.95 535.42"/>
      <polygon class="cls-30" points="1118.95 567.11 1067.42 640.27 1067.42 649.36 1054.01 666.13 1067.42 669.63 1073.77 650.76 1090.71 641.67 1104.83 609.51 1118.95 567.11"/>
      <polygon class="cls-29" points="1142.95 567.11 1101.65 631.18 1094.24 656.35 1082.24 656.35 1082.24 673.82 1073.77 683.61 1039.89 683.61 1054.01 666.13 1067.42 669.63 1073.77 650.76 1090.71 641.67 1104.83 609.51 1142.95 567.11"/>
      <polygon class="cls-15" points="1118.95 535.42 1093.48 444.16 1143.89 424.62 1166.48 427.74 1162.01 462.92 1152.57 462.92 1143.65 527.03 1118.95 535.42"/>
      <polygon class="cls-11" points="1051.67 193.58 1033.38 237.34 1047.31 222.78 1051.67 193.58"/>
      <polyline class="cls-1" points="1122.28 188.87 1051.67 193.58 1059.69 172.13 1122.28 188.87"/>
      <polyline class="cls-24" points="1122.28 258.05 1076.34 206.2 1051.67 193.58 1122.28 188.87 1122.28 258.05"/>
      <polygon class="cls-1" points="1051.67 193.58 1068.81 218.55 1076.34 206.2 1051.67 193.58"/>
      <polygon class="cls-10" points="1062.08 229.59 1047.31 222.78 1051.67 193.58 1068.81 218.55 1062.08 229.59"/>
      <polygon class="cls-28" points="1093.48 442.41 1078.48 398.45 1086.98 389.81 1110.65 382.75 1122.28 416.64 1157.41 416.64 1154.44 425.43 1143.89 424.06 1093.48 442.41"/>
      <polygon class="cls-4" points="1062.08 123.96 1110.65 133.88 1122.28 167.49 1062.08 123.96"/>
      <polygon class="cls-14" points="1151.02 167.49 1110.65 133.88 1122.28 167.49 1151.02 167.49"/>
      <polygon class="cls-4" points="1184.91 233.63 1151.02 167.49 1122.28 167.49 1162.67 255.34 1184.91 233.63"/>
      <polygon class="cls-26" points="1162.67 255.34 1122.28 296.64 1122.28 167.49 1162.67 255.34"/>
    </g>
  </g>
  <g id="Location_icon" data-name="Location icon">
    <path class="cls-12" d="m336.71,153.15c0-20.77-16.84-37.6-37.6-37.6s-37.6,16.84-37.6,37.6c0,6.09,1.45,11.85,4.03,16.94,0,.01,0,.02.01.03,4.75,10.62,33.56,52.28,33.56,52.28v-.05s28.32-40.96,33.43-52c2.66-5.16,4.17-11,4.17-17.21Zm-37.23-19.23c10.62,0,19.23,8.61,19.23,19.23s-8.61,19.23-19.23,19.23-19.23-8.61-19.23-19.23,8.61-19.23,19.23-19.23Z"/>
    <path class="cls-12" d="m647.08,433.39c0-20.77-16.84-37.6-37.6-37.6s-37.6,16.84-37.6,37.6c0,6.09,1.45,11.85,4.03,16.94,0,.01,0,.02.01.03,4.75,10.62,33.56,52.28,33.56,52.28v-.05s28.32-40.96,33.43-52c2.66-5.16,4.17-11,4.17-17.21Zm-37.23-19.23c10.62,0,19.23,8.61,19.23,19.23s-8.61,19.23-19.23,19.23-19.23-8.61-19.23-19.23,8.61-19.23,19.23-19.23Z"/>
  </g>
  <g id="pointille">
    <g id="top_ring">
      <path class="cls-33" d="m582.63,138.96c1.69.13,3.35.27,4.98.42"/>
      <path class="cls-38" d="m597.61,140.46c28.17,3.59,45.38,10.69,47.22,21.22,5.09,29.23-110.34,73.75-257.83,99.44-147.49,25.69-271.18,22.82-276.27-6.41-2.6-14.91,26.18-33.81,74.59-52.15"/>
      <path class="cls-33" d="m190.02,200.8c1.55-.57,3.11-1.14,4.7-1.71"/>
    </g>
    <g id="middle_ring">
      <path class="cls-33" d="m689.64,269.17c1.67.32,3.3.66,4.9,1.01"/>
      <path class="cls-36" d="m704.25,272.59c19.7,5.55,31.46,13.42,33.22,23.53,6.88,39.5-141.35,98.31-331.07,131.36-189.73,33.05-349.11,27.82-355.99-11.68-3.03-17.41,24.05-38.56,71.53-59.61"/>
      <path class="cls-33" d="m126.53,354.18c1.51-.65,3.05-1.31,4.6-1.96"/>
    </g>
    <g id="low_ring">
      <path class="cls-33" d="m709.78,479.6c1.67.32,3.31.66,4.9,1.01"/>
      <path class="cls-39" d="m724.41,483.06c18.5,5.31,29.54,12.79,31.21,22.37,6.59,37.85-135.44,94.21-317.25,125.88-181.81,31.67-334.53,26.66-341.13-11.2-2.9-16.63,22.9-36.83,68.15-56.95"/>
      <path class="cls-33" d="m169.99,561.15c1.51-.65,3.05-1.31,4.6-1.96"/>
    </g>
    <g id="connecting">
      <path class="cls-33" d="m988.2,671.24s-.8-1.6-2.43-4.36"/>
      <path class="cls-34" d="m980.4,658.49c-20.09-29.27-79.95-96.27-190.69-62.71-122.86,37.23-203.17,104.95-320.73,87.32"/>
      <path class="cls-33" d="m464.04,682.31c-1.63-.28-3.28-.57-4.92-.88"/>
    </g>
  </g>
</svg>